
<svg version="1.1" id="Layer_1" xmlns="http://www.w3.org/2000/svg" xmlns:xlink="http://www.w3.org/1999/xlink" x="0px" y="0px"
	 viewBox="0 0 451 170" style="enable-background:new 0 0 451 170;" xml:space="preserve">


	 
<style type="text/css">
	.st0{fill:#FFFFFF;stroke:#000000;stroke-width:3;stroke-miterlimit:10;}

	.st0{
		stroke-dasharray: 700;
		stroke-offset: 0;
		-webkit-animation: dash 2s linear forwards;
		-0-animation: dash 2s linear forwards;
		-moz-animation: dash 2s linear forwards;
		animation: dash 2s linear forwards;
	}

	@-webkit-keyframes dash{
		from {stroke-dashoffset: 700}
		to {stroke-dashoffset: 0}
	}
</style>
<g>
	<path id="austinLogo" class="st0" d="M58.94,91.94c5.18-0.65,8.89-1.46,11.12-2.44c4-1.69,6-4.33,6-7.91c0-4.36-1.54-7.37-4.6-9.03
		s-7.57-2.49-13.51-2.49c-6.67,0-11.38,1.63-14.16,4.88c-1.84,2.24-3.11,5.2-3.81,8.89c-0.1,0.5-0.52,0.87-1.03,0.87H14.11
		c-0.62,0-1.11-0.53-1.06-1.14c0.72-8.79,3.31-16.06,7.76-21.81C28.2,52.39,40.89,47.7,58.87,47.7c11.7,0,22.1,2.31,31.19,6.93
		c9.09,4.62,13.63,13.35,13.63,26.17v48.83c0,3.39,0.06,7.49,0.2,12.3c0.2,3.65,0.75,6.12,1.66,7.42c0.81,1.16,1.98,2.14,3.51,2.93
		c0.36,0.18,0.59,0.54,0.59,0.94v2.39c0,0.58-0.47,1.06-1.06,1.06H80.11c-0.44,0-0.84-0.28-1-0.69c-0.71-1.89-1.2-3.68-1.49-5.36
		c-0.22-1.27-0.41-2.66-0.57-4.17c-0.09-0.88-1.16-1.27-1.78-0.65c-3.49,3.47-7.42,6.48-11.79,9.02
		c-6.02,3.45-12.84,5.18-20.43,5.18c-9.69,0-17.7-2.75-24.02-8.25c-6.32-5.5-9.48-13.3-9.48-23.39c0-13.09,5.08-22.56,15.25-28.42
		c5.58-3.19,13.77-5.47,24.6-6.84L58.94,91.94z M75.96,106.76c0-0.8-0.86-1.31-1.56-0.92c-1.27,0.7-2.55,1.29-3.83,1.77
		c-1.82,0.68-4.31,1.32-7.47,1.9l-6.34,1.17c-5.94,1.04-10.2,2.31-12.79,3.81c-4.38,2.54-6.58,6.48-6.58,11.82
		c0,4.75,1.34,8.19,4.02,10.3c2.68,2.12,5.93,3.17,9.77,3.17c6.08,0,11.68-1.76,16.81-5.27s7.78-9.93,7.98-19.24V106.76z"/>
	<path class="st0" d="M123.69,50.24c0.58,0,1.06,0.47,1.06,1.06v63.1c0,6.05,0.71,10.61,2.14,13.67c2.53,5.4,7.48,8.11,14.87,8.11
		c9.46,0,15.94-3.84,19.44-11.52c1.81-4.17,2.72-9.67,2.72-16.5V51.3c0-0.58,0.47-1.06,1.06-1.06h26.11c0.58,0,1.06,0.47,1.06,1.06
		v104.33c0,0.58-0.47,1.06-1.06,1.06h-24.94c-0.58,0-1.06-0.47-1.06-1.06v-10.54c0-1.04-1.36-1.44-1.92-0.56
		c-0.01,0.02-0.02,0.03-0.03,0.05c-1.04,1.63-2.27,3.06-3.7,4.3c-4.35,3.91-8.55,6.58-12.61,8.01c-4.06,1.43-8.81,2.15-14.27,2.15
		c-15.71,0-26.29-5.66-31.75-16.99c-3.05-6.25-4.58-15.46-4.58-27.64V51.3c0-0.58,0.47-1.06,1.06-1.06H123.69z"/>
	<path class="st0" d="M208.83,122.7c0.53,0,0.97,0.4,1.05,0.92c0.63,4.47,1.87,7.67,3.71,9.62c3.47,3.71,9.88,5.57,19.23,5.57
		c5.5,0,9.86-0.81,13.1-2.44c3.24-1.63,4.86-4.07,4.86-7.32c0-3.12-1.3-5.5-3.91-7.13c-2.61-1.63-12.31-4.43-29.12-8.4
		c-12.1-2.99-20.62-6.74-25.56-11.23c-4.95-4.43-7.42-10.81-7.42-19.14c0-9.83,3.87-18.28,11.6-25.34
		c7.73-7.06,18.61-10.6,32.64-10.6c13.31,0,24.16,2.65,32.54,7.96c8.13,5.15,12.9,13.91,14.31,26.31c0.07,0.63-0.43,1.18-1.06,1.18
		h-25.72c-0.53,0-0.97-0.4-1.04-0.92c-0.46-3.15-1.43-5.67-2.92-7.57c-3.07-3.77-8.29-5.66-15.67-5.66c-6.07,0-10.4,0.94-12.97,2.83
		c-2.58,1.89-3.87,4.1-3.87,6.64c0,3.19,1.37,5.5,4.11,6.93c2.74,1.5,12.43,4.07,29.06,7.71c11.09,2.6,19.4,6.54,24.93,11.82
		c5.47,5.34,8.2,12.01,8.2,20.02c0,10.55-3.93,19.16-11.79,25.83s-20.01,10.01-36.45,10.01c-16.77,0-29.14-3.53-37.13-10.6
		c-7.73-6.83-11.72-15.47-11.98-25.92c-0.01-0.59,0.47-1.08,1.06-1.08H208.83z"/>
	<path class="st0" d="M257.47,69.98V52.27c0-0.58,0.47-1.06,1.06-1.06h12.73c0.58,0,1.06-0.47,1.06-1.06V22.58
		c0-0.58,0.47-1.06,1.06-1.06h25.42c0.58,0,1.06,0.47,1.06,1.06v27.57c0,0.58,0.47,1.06,1.06,1.06h15.17c0.58,0,1.06,0.47,1.06,1.06
		v17.71c0,0.58-0.47,1.06-1.06,1.06h-15.17c-0.58,0-1.06,0.47-1.06,1.06v55.19c0,4.36,0.55,7.08,1.66,8.15
		c1.11,1.07,4.49,1.61,10.16,1.61c0.85,0,1.74-0.02,2.69-0.05c0.56-0.02,1.11-0.04,1.66-0.07c0.61-0.03,1.12,0.44,1.12,1.05v18.66
		c0,0.57-0.45,1.04-1.02,1.06l-12.17,0.45c-13.15,0.45-22.14-1.82-26.95-6.84c-3.12-3.19-4.69-8.11-4.69-14.75V72.1
		c0-0.58-0.47-1.06-1.06-1.06h-12.73C257.94,71.04,257.47,70.57,257.47,69.98z"/>
	<path class="st0" d="M344.56,37.54h-26.11c-0.58,0-1.06-0.47-1.06-1.06V12.92c0-0.58,0.47-1.06,1.06-1.06h26.11
		c0.58,0,1.06,0.47,1.06,1.06v23.57C345.62,37.07,345.15,37.54,344.56,37.54z M318.46,50.24h26.11c0.58,0,1.06,0.47,1.06,1.06
		v104.33c0,0.58-0.47,1.06-1.06,1.06h-26.11c-0.58,0-1.06-0.47-1.06-1.06V51.3C317.4,50.71,317.87,50.24,318.46,50.24z"/>
	<path class="st0" d="M430.41,56.34c6.97,5.76,10.45,15.32,10.45,28.66v70.62c0,0.58-0.47,1.06-1.06,1.06h-26.4
		c-0.58,0-1.06-0.47-1.06-1.06V91.94c0-5.6-0.74-9.9-2.23-12.89c-2.72-5.47-7.89-8.2-15.51-8.2c-9.37,0-15.8,4-19.29,12.01
		c-1.81,4.23-2.71,9.64-2.71,16.21v56.56c0,0.58-0.47,1.06-1.06,1.06h-25.72c-0.58,0-1.06-0.47-1.06-1.06V51.49
		c0-0.58,0.47-1.06,1.06-1.06h24.84c0.58,0,1.06,0.47,1.06,1.06v11.04c0,1.03,1.32,1.45,1.92,0.61c2.86-4.03,5.6-7.03,8.2-9
		c5.7-4.3,12.93-6.45,21.69-6.45C414.48,47.7,423.44,50.58,430.41,56.34z"/>
</g>
</svg>
