<?xml version="1.0" encoding="utf-8"?>
<!-- Generator: Adobe Illustrator 23.0.2, SVG Export Plug-In . SVG Version: 6.00 Build 0)  -->
<svg version="1.1" id="Layer_1" xmlns="http://www.w3.org/2000/svg" xmlns:xlink="http://www.w3.org/1999/xlink" x="0px" y="0px"
	 viewBox="0 0 447 173" style="enable-background:new 0 0 447 173;" xml:space="preserve">
<style type="text/css">
	.st0{fill:#FFFFFF;stroke:#000000;stroke-width:3;stroke-miterlimit:10;}
			.st0{
		stroke-dasharray: 650;
		stroke-offset: 0;
		-webkit-animation: dash 2s linear forwards;
		-0-animation: dash 2s linear forwards;
		-moz-animation: dash 2s linear forwards;
		animation: dash 2s linear forwards;
	}

	@-webkit-keyframes dash{
		from {stroke-dashoffset: 650}
		to {stroke-dashoffset: 0}
	}
</style>
<path class="st0" d="M76.03,54.15c2.92,1.65,5.53,3.68,7.81,6.07c1.58,1.66,4.4,0.48,4.4-1.81V17.7c0-1.42,1.15-2.56,2.56-2.56h23.1
	c1.42,0,2.56,1.15,2.56,2.56v138.62c0,1.42-1.15,2.56-2.56,2.56H91.97c-1.42,0-2.56-1.15-2.56-2.56v-4.37
	c0-2.37-2.95-3.47-4.49-1.68c-2.8,3.25-5.83,5.8-9.08,7.63c-5.08,2.86-11.39,4.3-18.95,4.3c-12.44,0-22.9-5.03-31.4-15.09
	s-12.74-22.96-12.74-38.72c0-18.16,4.18-32.45,12.55-42.87C33.66,55.11,44.84,49.9,58.84,49.9C65.29,49.9,71.02,51.32,76.03,54.15z
	 M82.87,129.98c4.1-5.86,6.15-13.44,6.15-22.75c0-13.02-3.29-22.33-9.86-27.93c-4.04-3.38-8.73-5.08-14.06-5.08
	c-8.14,0-14.11,3.08-17.92,9.23s-5.71,13.79-5.71,22.9c0,9.83,1.94,17.69,5.81,23.58c3.87,5.89,9.75,8.84,17.63,8.84
	C72.77,138.77,78.76,135.84,82.87,129.98z"/>
<path class="st0" d="M154.91,94.14c5.18-0.65,8.89-1.46,11.12-2.44c4-1.69,6-4.33,6-7.91c0-4.36-1.54-7.37-4.6-9.03
	s-7.57-2.49-13.51-2.49c-6.67,0-11.38,1.63-14.16,4.88c-1.65,2-2.84,4.59-3.57,7.77c-0.27,1.16-1.3,2-2.49,2h-21.95
	c-1.52,0-2.72-1.33-2.55-2.84c0.9-8.04,3.44-14.74,7.6-20.11c7.39-9.38,20.07-14.06,38.06-14.06c11.7,0,22.1,2.31,31.19,6.93
	c9.09,4.62,13.63,13.35,13.63,26.17v48.83c0,3.39,0.06,7.49,0.2,12.3c0.2,3.65,0.75,6.12,1.66,7.42c0.68,0.98,1.62,1.83,2.82,2.54
	c0.78,0.47,1.28,1.3,1.28,2.22l0,0c0,1.42-1.15,2.56-2.56,2.56h-25.91c-1.1,0-2.09-0.71-2.44-1.76c-0.51-1.5-0.88-2.93-1.11-4.3
	c-0.07-0.41-0.14-0.84-0.21-1.28c-0.3-2.04-2.73-2.91-4.26-1.54c-2.94,2.64-6.16,4.98-9.67,7.02c-6.02,3.45-12.84,5.18-20.43,5.18
	c-9.69,0-17.7-2.75-24.02-8.25c-6.32-5.5-9.48-13.3-9.48-23.39c0-13.09,5.08-22.56,15.25-28.42c5.58-3.19,13.77-5.47,24.6-6.84
	L154.91,94.14z M171.93,111.41c0-1.86-1.92-3.1-3.61-2.33c-0.59,0.27-1.19,0.52-1.78,0.74c-1.82,0.68-4.31,1.32-7.47,1.9l-6.34,1.17
	c-5.94,1.04-10.2,2.31-12.79,3.81c-4.38,2.54-6.58,6.48-6.58,11.82c0,4.75,1.34,8.19,4.02,10.3c2.68,2.12,5.93,3.17,9.77,3.17
	c6.08,0,11.68-1.76,16.81-5.27s7.78-9.93,7.98-19.24V111.41z"/>
<path class="st0" d="M229.84,158.89h-22.7c-1.42,0-2.56-1.15-2.56-2.56V17.51c0-1.42,1.15-2.56,2.56-2.56h22.7
	c1.42,0,2.56,1.15,2.56,2.56v138.82C232.4,157.74,231.25,158.89,229.84,158.89z"/>
<path class="st0" d="M260.4,158.89h-22.7c-1.42,0-2.56-1.15-2.56-2.56V17.51c0-1.42,1.15-2.56,2.56-2.56h22.7
	c1.42,0,2.56,1.15,2.56,2.56v138.82C262.97,157.74,261.82,158.89,260.4,158.89z"/>
<path class="st0" d="M304.28,94.14c5.18-0.65,8.88-1.46,11.12-2.44c4-1.69,6-4.33,6-7.91c0-4.36-1.54-7.37-4.6-9.03
	s-7.57-2.49-13.51-2.49c-6.67,0-11.38,1.63-14.16,4.88c-1.65,2-2.84,4.59-3.57,7.77c-0.27,1.16-1.3,2-2.49,2h-21.95
	c-1.52,0-2.72-1.33-2.55-2.84c0.9-8.04,3.44-14.74,7.6-20.11c7.39-9.38,20.07-14.06,38.06-14.06c11.7,0,22.1,2.31,31.19,6.93
	c9.09,4.62,13.63,13.35,13.63,26.17v48.83c0,3.39,0.06,7.49,0.2,12.3c0.2,3.65,0.75,6.12,1.66,7.42c0.68,0.98,1.62,1.83,2.82,2.54
	c0.78,0.47,1.28,1.3,1.28,2.22l0,0c0,1.42-1.15,2.56-2.56,2.56h-25.91c-1.1,0-2.09-0.71-2.44-1.76c-0.51-1.5-0.88-2.93-1.11-4.3
	c-0.07-0.41-0.14-0.84-0.21-1.28c-0.3-2.04-2.73-2.91-4.26-1.54c-2.94,2.64-6.16,4.98-9.67,7.02c-6.02,3.45-12.83,5.18-20.43,5.18
	c-9.69,0-17.7-2.75-24.02-8.25c-6.32-5.5-9.48-13.3-9.48-23.39c0-13.09,5.08-22.56,15.25-28.42c5.58-3.19,13.77-5.47,24.6-6.84
	L304.28,94.14z M321.29,111.41c0-1.86-1.92-3.1-3.61-2.33c-0.59,0.27-1.19,0.52-1.78,0.74c-1.82,0.68-4.31,1.32-7.47,1.9l-6.33,1.17
	c-5.94,1.04-10.2,2.31-12.79,3.81c-4.38,2.54-6.58,6.48-6.58,11.82c0,4.75,1.34,8.19,4.02,10.3c2.68,2.12,5.93,3.17,9.77,3.17
	c6.08,0,11.68-1.76,16.81-5.27s7.78-9.93,7.98-19.24V111.41z"/>
<path class="st0" d="M362.72,124.9c1.25,0,2.31,0.91,2.53,2.15c0.68,3.83,1.85,6.63,3.51,8.4c3.47,3.71,9.88,5.57,19.23,5.57
	c5.5,0,9.86-0.81,13.1-2.44c3.24-1.63,4.86-4.07,4.86-7.32c0-3.12-1.3-5.5-3.91-7.13c-2.61-1.63-12.32-4.43-29.12-8.4
	c-12.1-2.99-20.62-6.74-25.56-11.23c-4.95-4.43-7.42-10.81-7.42-19.14c0-9.83,3.87-18.28,11.6-25.34
	c7.73-7.06,18.61-10.6,32.64-10.6c13.31,0,24.16,2.65,32.54,7.96c7.74,4.9,12.44,13.08,14.09,24.56c0.22,1.54-0.98,2.93-2.54,2.93
	h-22.74c-1.24,0-2.28-0.9-2.52-2.11c-0.51-2.6-1.42-4.73-2.71-6.38c-3.07-3.77-8.29-5.66-15.67-5.66c-6.07,0-10.4,0.94-12.97,2.83
	c-2.58,1.89-3.87,4.1-3.87,6.64c0,3.19,1.37,5.5,4.11,6.93c2.74,1.5,12.43,4.07,29.06,7.71c11.09,2.6,19.4,6.54,24.93,11.82
	c5.47,5.34,8.2,12.01,8.2,20.02c0,10.55-3.93,19.16-11.79,25.83s-20.01,10.01-36.45,10.01c-16.77,0-29.14-3.53-37.14-10.6
	c-7.32-6.47-11.29-14.57-11.9-24.29c-0.09-1.47,1.09-2.71,2.57-2.71H362.72z"/>
<path class="st0" d="M362.72,124.9c1.25,0,2.31,0.91,2.53,2.15c0.68,3.83,1.85,6.63,3.51,8.4c3.47,3.71,9.88,5.57,19.23,5.57
	c5.5,0,9.86-0.81,13.1-2.44c3.24-1.63,4.86-4.07,4.86-7.32c0-3.12-1.3-5.5-3.91-7.13c-2.61-1.63-12.32-4.43-29.12-8.4
	c-12.1-2.99-20.62-6.74-25.56-11.23c-4.95-4.43-7.42-10.81-7.42-19.14c0-9.83,3.87-18.28,11.6-25.34
	c7.73-7.06,18.61-10.6,32.64-10.6c13.31,0,24.16,2.65,32.54,7.96c7.74,4.9,12.44,13.08,14.09,24.56c0.22,1.54-0.98,2.93-2.54,2.93
	h-22.74c-1.24,0-2.28-0.9-2.52-2.11c-0.51-2.6-1.42-4.73-2.71-6.38c-3.07-3.77-8.29-5.66-15.67-5.66c-6.07,0-10.4,0.94-12.97,2.83
	c-2.58,1.89-3.87,4.1-3.87,6.64c0,3.19,1.37,5.5,4.11,6.93c2.74,1.5,12.43,4.07,29.06,7.71c11.09,2.6,19.4,6.54,24.93,11.82
	c5.47,5.34,8.2,12.01,8.2,20.02c0,10.55-3.93,19.16-11.79,25.83s-20.01,10.01-36.45,10.01c-16.77,0-29.14-3.53-37.14-10.6
	c-7.32-6.47-11.29-14.57-11.9-24.29c-0.09-1.47,1.09-2.71,2.57-2.71H362.72z"/>
</svg>
