<?xml version="1.0" encoding="utf-8"?>
<!-- Generator: Adobe Illustrator 23.0.2, SVG Export Plug-In . SVG Version: 6.00 Build 0)  -->
<svg version="1.1" id="Layer_1" xmlns="http://www.w3.org/2000/svg" xmlns:xlink="http://www.w3.org/1999/xlink" x="0px" y="0px"
	 viewBox="0 0 893 177" style="enable-background:new 0 0 893 177;" xml:space="preserve">
<style type="text/css">
	.st0{fill:#FFFFFF;stroke:#000000;stroke-width:7;stroke-miterlimit:10;}

		.st0{
		stroke-dasharray: 700;
		stroke-offset: 0;
		-webkit-animation: dash 2s linear forwards;
		-0-animation: dash 2s linear forwards;
		-moz-animation: dash 2s linear forwards;
		animation: dash 2s linear forwards;
	}

	@-webkit-keyframes dash{
		from {stroke-dashoffset: 700}
		to {stroke-dashoffset: 0}
	}
</style>
<g>
	<path class="st0" d="M98.81,15.21c10.1,3.32,18.28,9.41,24.53,18.26c5.02,7.16,8.44,14.91,10.26,23.24
		c1.82,8.33,2.74,16.28,2.74,23.83c0,19.14-3.85,35.35-11.53,48.63c-10.42,17.9-26.52,26.86-48.28,26.86H17.06
		c-1.43,0-2.6-1.16-2.6-2.6V14.69c0-1.43,1.16-2.6,2.6-2.6h59.46C85.45,12.22,92.88,13.26,98.81,15.21z M43.66,39.69v88.75
		c0,1.43,1.16,2.6,2.6,2.6h25.18c14.21,0,24.13-7,29.73-21c3.06-7.68,4.6-16.83,4.6-27.44c0-14.65-2.3-25.89-6.9-33.74
		c-4.6-7.84-13.74-11.77-27.44-11.77H46.26C44.82,37.09,43.66,38.25,43.66,39.69z"/>
	<path class="st0" d="M185.78,47.1c0,0,0.01,0,0.01,0c1.34,0.12,2.38,1.24,2.38,2.59V72.9c0,1.51-1.29,2.71-2.8,2.59
		c-0.67-0.05-1.3-0.09-1.89-0.12c-1.37-0.06-2.48-0.1-3.32-0.1c-11.2,0-18.72,3.65-22.56,10.94c-2.15,4.1-3.22,10.42-3.22,18.95
		v48.28c0,1.43-1.16,2.6-2.6,2.6h-22.83c-1.43,0-2.6-1.16-2.6-2.6V52.19c0-1.43,1.16-2.6,2.6-2.6h21.37c1.43,0,2.6,1.16,2.6,2.6
		v7.26c0,2.52,3.23,3.56,4.7,1.52c2.39-3.31,4.56-5.77,6.53-7.37c5.21-4.36,11.98-6.54,20.31-6.54
		C184.98,47.05,185.42,47.07,185.78,47.1z"/>
	<path class="st0" d="M213.5,36.89h-23.03c-1.43,0-2.6-1.16-2.6-2.6V13.81c0-1.43,1.16-2.6,2.6-2.6h23.03c1.43,0,2.6,1.16,2.6,2.6
		V34.3C216.1,35.73,214.93,36.89,213.5,36.89z M190.47,49.59h23.03c1.43,0,2.6,1.16,2.6,2.6v101.25c0,1.43-1.16,2.6-2.6,2.6h-23.03
		c-1.43,0-2.6-1.16-2.6-2.6V52.19C187.87,50.75,189.04,49.59,190.47,49.59z"/>
	<path class="st0" d="M302.88,55.69c6.97,5.76,10.45,15.32,10.45,28.66v69.08c0,1.43-1.16,2.6-2.6,2.6h-23.32
		c-1.43,0-2.6-1.16-2.6-2.6V91.29c0-5.6-0.74-9.9-2.23-12.89c-2.72-5.47-7.89-8.2-15.51-8.2c-9.37,0-15.8,4-19.29,12.01
		c-1.81,4.23-2.71,9.64-2.71,16.21v55.02c0,1.43-1.16,2.6-2.6,2.6h-22.64c-1.43,0-2.6-1.16-2.6-2.6V52.38c0-1.43,1.16-2.6,2.6-2.6
		h21.76c1.43,0,2.6,1.16,2.6,2.6v4.94c0,2.43,3.05,3.53,4.59,1.66c1.9-2.31,3.74-4.14,5.52-5.49c5.7-4.3,12.93-6.45,21.69-6.45
		C286.95,47.05,295.91,49.93,302.88,55.69z"/>
	<path class="st0" d="M316.52,12.58h22.15c1.43,0,2.6,1.16,2.6,2.6v68.14c0,2.4,2.97,3.52,4.55,1.71l29.77-34.06
		c0.49-0.56,1.21-0.89,1.96-0.89h27.33c2.29,0,3.46,2.75,1.87,4.4L374.2,88.3c-0.81,0.84-0.96,2.13-0.36,3.13l36.26,60.67
		c1.03,1.73-0.21,3.93-2.23,3.93H380.1c-0.94,0-1.8-0.5-2.26-1.32l-23.33-41.13c-0.86-1.51-2.93-1.77-4.13-0.52l-8.39,8.72
		c-0.47,0.48-0.73,1.13-0.73,1.8v29.85c0,1.43-1.16,2.6-2.6,2.6h-22.15c-1.43,0-2.6-1.16-2.6-2.6V15.18
		C313.92,13.74,315.09,12.58,316.52,12.58z"/>
	<path class="st0" d="M582.76,143.24c-10.87,11.2-26.6,16.8-47.17,16.8c-20.57,0-36.3-5.6-47.17-16.8
		c-14.58-13.74-21.88-33.53-21.88-59.38c0-26.37,7.29-46.16,21.88-59.38C499.3,13.3,515.02,7.7,535.6,7.7
		c20.57,0,36.29,5.6,47.17,16.8c14.52,13.22,21.78,33.01,21.78,59.38C604.54,109.71,597.28,129.51,582.76,143.24z M563.96,121.37
		c7-8.79,10.5-21.29,10.5-37.5c0-16.15-3.5-28.63-10.5-37.45c-7-8.82-16.46-13.23-28.37-13.23s-21.42,4.39-28.52,13.18
		c-7.1,8.79-10.64,21.29-10.64,37.5s3.55,28.71,10.64,37.5c7.1,8.79,16.6,13.18,28.52,13.18S556.97,130.16,563.96,121.37z"/>
	<path class="st0" d="M467.25,96.73c-4.08-1.9-8.82-3.49-14.21-4.76c-16.63-3.65-26.32-6.22-29.06-7.71
		c-2.74-1.43-4.11-3.74-4.11-6.93c0-2.54,1.29-4.75,3.87-6.64c2.58-1.89,6.9-2.83,12.97-2.83c7.38,0,12.6,1.89,15.67,5.66
		c1.29,1.65,2.19,3.77,2.71,6.36c0.25,1.23,1.3,2.14,2.55,2.14h17.72c2.43-0.72,4.89-1.28,7.39-1.7c0.15-0.39,0.21-0.82,0.15-1.27
		c-1.66-11.45-6.35-19.62-14.08-24.52c-8.38-5.31-19.23-7.96-32.54-7.96c-14.03,0-24.91,3.53-32.64,10.6
		c-7.73,7.06-11.6,15.51-11.6,25.34c0,8.33,2.47,14.71,7.42,19.14c4.95,4.49,13.47,8.24,25.56,11.23c16.8,3.97,26.51,6.77,29.12,8.4
		c2.61,1.63,3.91,4,3.91,7.13c0,3.26-1.62,5.7-4.86,7.32c-3.24,1.63-7.61,2.44-13.1,2.44c-9.35,0-15.76-1.86-19.23-5.57
		c-1.66-1.76-2.83-4.55-3.51-8.37c-0.22-1.25-1.29-2.18-2.56-2.18h-23.3c-1.49,0-2.69,1.26-2.6,2.75
		c0.62,9.71,4.59,17.79,11.9,24.26c7.99,7.06,20.37,10.6,37.14,10.6c16.44,0,28.59-3.34,36.45-10.01c4.02-3.42,7.01-7.34,8.98-11.77
		C474.37,127.15,469.02,113.43,467.25,96.73z"/>
	<path class="st0" d="M680.08,55.69c6.97,5.76,10.45,15.32,10.45,28.66v69.08c0,1.43-1.16,2.6-2.6,2.6h-23.32
		c-1.43,0-2.6-1.16-2.6-2.6V91.29c0-5.6-0.74-9.9-2.23-12.89c-2.72-5.47-7.89-8.2-15.51-8.2c-9.37,0-15.8,4-19.29,12.01
		c-1.81,4.23-2.71,9.64-2.71,16.21v55.02c0,1.43-1.16,2.6-2.6,2.6h-22.64c-1.43,0-2.6-1.16-2.6-2.6V52.38c0-1.43,1.16-2.6,2.6-2.6
		h21.76c1.43,0,2.6,1.16,2.6,2.6v4.94c0,2.43,3.05,3.53,4.59,1.66c1.9-2.31,3.74-4.14,5.52-5.49c5.7-4.3,12.93-6.45,21.69-6.45
		C664.15,47.05,673.11,49.93,680.08,55.69z"/>
	<path class="st0" d="M809.19,122.05c1.27,0,2.34,0.93,2.56,2.18c0.68,3.82,1.85,6.61,3.51,8.37c3.47,3.71,9.88,5.57,19.23,5.57
		c5.5,0,9.86-0.81,13.1-2.44c3.24-1.63,4.86-4.07,4.86-7.32c0-3.12-1.3-5.5-3.91-7.13c-2.61-1.63-12.32-4.43-29.12-8.4
		c-12.1-2.99-20.62-6.74-25.56-11.23c-4.95-4.43-7.42-10.81-7.42-19.14c0-9.83,3.87-18.28,11.6-25.34
		c7.73-7.06,18.61-10.6,32.64-10.6c13.31,0,24.16,2.65,32.54,7.96c7.73,4.89,12.43,13.07,14.08,24.52c0.23,1.56-1,2.97-2.58,2.97
		h-22.67c-1.26,0-2.31-0.91-2.55-2.14c-0.52-2.59-1.42-4.71-2.71-6.36c-3.07-3.77-8.29-5.66-15.67-5.66
		c-6.07,0-10.4,0.94-12.97,2.83c-2.58,1.89-3.87,4.1-3.87,6.64c0,3.19,1.37,5.5,4.11,6.93c2.74,1.5,12.43,4.07,29.06,7.71
		c11.09,2.6,19.4,6.54,24.93,11.82c5.47,5.34,8.2,12.01,8.2,20.02c0,10.55-3.93,19.16-11.79,25.83s-20.01,10.01-36.45,10.01
		c-16.77,0-29.14-3.53-37.14-10.6c-7.31-6.46-11.28-14.55-11.9-24.26c-0.1-1.49,1.11-2.75,2.6-2.75H809.19z"/>
	<path class="st0" d="M783.29,124.8c-0.1-1.49,1.11-2.75,2.6-2.75h8.28c1.34-6.21,2.01-13.37,2.01-21.48V14.69
		c0-1.43-1.16-2.6-2.6-2.6h-25.37c-1.43,0-2.6,1.16-2.6,2.6v85.81c0,9.89-1.17,17.11-3.5,21.66c-3.63,8.07-11.51,12.1-23.64,12.1
		c-12.2,0-20.11-4.03-23.74-12.1c-2.34-4.55-3.5-11.77-3.5-21.66V14.69c0-1.43-1.16-2.6-2.6-2.6h-25.37c-1.43,0-2.6,1.16-2.6,2.6
		v85.88c0,15.3,2.37,27.21,7.12,35.74c8.9,15.62,25.8,23.44,50.7,23.44c23.31,0,39.58-6.85,48.81-20.55
		C784.97,134.87,783.63,130.08,783.29,124.8z"/>
</g>
</svg>
