<?xml version="1.0" encoding="utf-8"?>
<!-- Generator: Adobe Illustrator 23.0.2, SVG Export Plug-In . SVG Version: 6.00 Build 0)  -->
<svg version="1.1" id="Layer_1" xmlns="http://www.w3.org/2000/svg" xmlns:xlink="http://www.w3.org/1999/xlink" x="0px" y="0px"
	 viewBox="0 0 660 177" style="enable-background:new 0 0 660 177;" xml:space="preserve">
<style type="text/css">
	.st0{fill:#FFFFFF;stroke:#000000;stroke-width:3;stroke-miterlimit:10;}
			.st0{
		stroke-dasharray: 800;
		stroke-offset: 0;
		-webkit-animation: dash 2s linear forwards;
		-0-animation: dash 2s linear forwards;
		-moz-animation: dash 2s linear forwards;
		animation: dash 2s linear forwards;
	}

	@-webkit-keyframes dash{
		from {stroke-dashoffset: 800}
		to {stroke-dashoffset: 0}
	}
</style>
<g>
	<path class="st0" d="M20.78,158.14V16.3c0-0.58,0.47-1.06,1.06-1.06H49.6c0.58,0,1.06,0.47,1.06,1.06v52.77
		c0,0.58,0.47,1.06,1.06,1.06h53.84c0.58,0,1.06-0.47,1.06-1.06V16.3c0-0.58,0.47-1.06,1.06-1.06h27.77c0.58,0,1.06,0.47,1.06,1.06
		v141.83c0,0.58-0.47,1.06-1.06,1.06h-27.77c-0.58,0-1.06-0.47-1.06-1.06V95.99c0-0.58-0.47-1.06-1.06-1.06H51.72
		c-0.58,0-1.06,0.47-1.06,1.06v62.14c0,0.58-0.47,1.06-1.06,1.06H21.83C21.25,159.19,20.78,158.72,20.78,158.14z"/>
	<path class="st0" d="M223.93,146.17c-8.98,11.09-22.62,16.64-40.92,16.64c-18.3,0-31.93-5.54-40.92-16.64
		c-8.98-11.09-13.48-24.44-13.48-40.05c0-15.35,4.49-28.65,13.48-39.91s22.62-16.88,40.92-16.88c18.29,0,31.93,5.63,40.92,16.88
		s13.48,24.56,13.48,39.91C237.4,121.73,232.91,135.08,223.93,146.17z M201.66,130.79c4.36-5.79,6.54-14.01,6.54-24.67
		c0-10.66-2.18-18.87-6.54-24.62c-4.36-5.75-10.61-8.63-18.75-8.63c-8.14,0-14.4,2.88-18.8,8.63s-6.59,13.96-6.59,24.62
		c0,10.66,2.2,18.89,6.59,24.67s10.66,8.68,18.8,8.68C191.05,139.47,197.3,136.57,201.66,130.79z"/>
	<path class="st0" d="M260,52.75c0.58,0,1.06,0.47,1.06,1.06v63.1c0,6.05,0.71,10.61,2.14,13.67c2.53,5.4,7.48,8.11,14.87,8.11
		c9.46,0,15.94-3.84,19.44-11.52c1.81-4.17,2.72-9.67,2.72-16.5V53.8c0-0.58,0.47-1.06,1.06-1.06h26.11c0.58,0,1.06,0.47,1.06,1.06
		v104.33c0,0.58-0.47,1.06-1.06,1.06h-24.94c-0.58,0-1.06-0.47-1.06-1.06V147.6c0-1.04-1.36-1.44-1.92-0.56
		c-0.01,0.02-0.02,0.03-0.03,0.05c-1.04,1.63-2.27,3.06-3.7,4.3c-4.35,3.91-8.55,6.58-12.61,8.01c-4.06,1.43-8.81,2.15-14.27,2.15
		c-15.71,0-26.29-5.66-31.75-16.99c-3.05-6.25-4.58-15.46-4.58-27.64V53.8c0-0.58,0.47-1.06,1.06-1.06H260z"/>
	<path class="st0" d="M347.15,125.21c0.53,0,0.97,0.4,1.05,0.92c0.63,4.47,1.87,7.67,3.71,9.62c3.47,3.71,9.88,5.57,19.23,5.57
		c5.5,0,9.86-0.81,13.1-2.44c3.24-1.63,4.86-4.07,4.86-7.32c0-3.12-1.3-5.5-3.91-7.13c-2.61-1.63-12.32-4.43-29.12-8.4
		c-12.1-2.99-20.62-6.74-25.56-11.23c-4.95-4.43-7.42-10.81-7.42-19.14c0-9.83,3.87-18.28,11.6-25.34
		c7.73-7.06,18.61-10.6,32.64-10.6c13.31,0,24.16,2.65,32.54,7.96c8.13,5.15,12.9,13.91,14.31,26.31c0.07,0.63-0.43,1.18-1.06,1.18
		h-25.72c-0.53,0-0.97-0.4-1.04-0.92c-0.46-3.15-1.43-5.67-2.92-7.57c-3.07-3.77-8.29-5.66-15.67-5.66c-6.07,0-10.4,0.94-12.97,2.83
		c-2.58,1.89-3.87,4.1-3.87,6.64c0,3.19,1.37,5.5,4.11,6.93c2.74,1.5,12.43,4.07,29.06,7.71c11.09,2.6,19.4,6.54,24.93,11.82
		c5.47,5.34,8.2,12.01,8.2,20.02c0,10.55-3.93,19.16-11.79,25.83s-20.01,10.01-36.45,10.01c-16.77,0-29.14-3.53-37.14-10.6
		c-7.73-6.83-11.72-15.47-11.97-25.92c-0.01-0.59,0.47-1.08,1.06-1.08H347.15z"/>
	<path class="st0" d="M401.79,72.49V54.78c0-0.58,0.47-1.06,1.06-1.06h12.73c0.58,0,1.06-0.47,1.06-1.06V25.09
		c0-0.58,0.47-1.06,1.06-1.06h25.42c0.58,0,1.06,0.47,1.06,1.06v27.57c0,0.58,0.47,1.06,1.06,1.06h15.17c0.58,0,1.06,0.47,1.06,1.06
		v17.71c0,0.58-0.47,1.06-1.06,1.06h-15.17c-0.58,0-1.06,0.47-1.06,1.06v55.19c0,4.36,0.55,7.08,1.66,8.15
		c1.11,1.07,4.49,1.61,10.16,1.61c0.85,0,1.74-0.02,2.69-0.05c0.56-0.02,1.11-0.04,1.66-0.07c0.61-0.03,1.12,0.44,1.12,1.05v18.66
		c0,0.57-0.45,1.04-1.02,1.06l-12.17,0.45c-13.15,0.45-22.14-1.82-26.95-6.84c-3.12-3.19-4.69-8.11-4.69-14.75V74.61
		c0-0.58-0.47-1.06-1.06-1.06h-12.73C402.26,73.55,401.79,73.08,401.79,72.49z"/>
	<path class="st0" d="M545.1,146.17c-8.98,11.09-22.62,16.64-40.92,16.64c-18.29,0-31.93-5.54-40.92-16.64
		c-8.98-11.09-13.48-24.44-13.48-40.05c0-15.35,4.49-28.65,13.48-39.91s22.62-16.88,40.92-16.88c18.29,0,31.93,5.63,40.92,16.88
		s13.48,24.56,13.48,39.91C558.57,121.73,554.08,135.08,545.1,146.17z M522.83,130.79c4.36-5.79,6.54-14.01,6.54-24.67
		c0-10.66-2.18-18.87-6.54-24.62c-4.36-5.75-10.61-8.63-18.75-8.63c-8.14,0-14.4,2.88-18.8,8.63s-6.59,13.96-6.59,24.62
		c0,10.66,2.2,18.89,6.59,24.67s10.66,8.68,18.8,8.68C512.22,139.47,518.47,136.57,522.83,130.79z"/>
	<path class="st0" d="M635.33,58.85c6.97,5.76,10.45,15.32,10.45,28.66v70.62c0,0.58-0.47,1.06-1.06,1.06h-26.4
		c-0.58,0-1.06-0.47-1.06-1.06V94.45c0-5.6-0.74-9.9-2.23-12.89c-2.72-5.47-7.89-8.2-15.51-8.2c-9.37,0-15.8,4-19.29,12.01
		c-1.81,4.23-2.71,9.64-2.71,16.21v56.56c0,0.58-0.47,1.06-1.06,1.06h-25.72c-0.58,0-1.06-0.47-1.06-1.06V54
		c0-0.58,0.47-1.06,1.06-1.06h24.84c0.58,0,1.06,0.47,1.06,1.06v11.04c0,1.03,1.32,1.45,1.91,0.61c2.86-4.03,5.6-7.03,8.2-9
		c5.7-4.3,12.93-6.45,21.69-6.45C619.4,50.21,628.36,53.09,635.33,58.85z"/>
</g>
</svg>
